<mxfile host="app.diagrams.net" modified="2023-08-15T21:21:42.755Z" agent="Mozilla/5.0 (Windows NT 10.0; Win64; x64) AppleWebKit/537.36 (KHTML, like Gecko) Chrome/115.0.0.0 Safari/537.36" etag="b5oJkdgVZR6Q-eAhw0Sn" version="21.6.7" type="device">
  <diagram name="PÃ¡gina-1" id="DbBxJs89_W1dFlVhgzyf">
    <mxGraphModel dx="880" dy="438" grid="1" gridSize="10" guides="1" tooltips="1" connect="1" arrows="1" fold="1" page="1" pageScale="1" pageWidth="827" pageHeight="1169" math="0" shadow="0">
      <root>
        <mxCell id="0" />
        <mxCell id="1" parent="0" />
        <mxCell id="heMwimYEF9W9IpmWdrQg-1" value="Model.Produto" style="swimlane;fontStyle=1;align=center;verticalAlign=top;childLayout=stackLayout;horizontal=1;startSize=26;horizontalStack=0;resizeParent=1;resizeParentMax=0;resizeLast=0;collapsible=1;marginBottom=0;whiteSpace=wrap;html=1;" vertex="1" parent="1">
          <mxGeometry x="25" y="30" width="170" height="178" as="geometry">
            <mxRectangle x="70" y="60" width="120" height="30" as="alternateBounds" />
          </mxGeometry>
        </mxCell>
        <mxCell id="heMwimYEF9W9IpmWdrQg-2" value="+ nome: String&lt;br&gt;+ descricao: String&lt;br&gt;+ valor: double&lt;br&gt;+ estoque: int&lt;br&gt;+ id: int" style="text;strokeColor=none;fillColor=none;align=left;verticalAlign=top;spacingLeft=4;spacingRight=4;overflow=hidden;rotatable=0;points=[[0,0.5],[1,0.5]];portConstraint=eastwest;whiteSpace=wrap;html=1;" vertex="1" parent="heMwimYEF9W9IpmWdrQg-1">
          <mxGeometry y="26" width="170" height="84" as="geometry" />
        </mxCell>
        <mxCell id="heMwimYEF9W9IpmWdrQg-3" value="" style="line;strokeWidth=1;fillColor=none;align=left;verticalAlign=middle;spacingTop=-1;spacingLeft=3;spacingRight=3;rotatable=0;labelPosition=right;points=[];portConstraint=eastwest;strokeColor=inherit;" vertex="1" parent="heMwimYEF9W9IpmWdrQg-1">
          <mxGeometry y="110" width="170" height="8" as="geometry" />
        </mxCell>
        <mxCell id="heMwimYEF9W9IpmWdrQg-4" value="+ visualizarUsuario(): String&lt;br&gt;+ visualizarVendedor(): String" style="text;strokeColor=none;fillColor=none;align=left;verticalAlign=top;spacingLeft=4;spacingRight=4;overflow=hidden;rotatable=0;points=[[0,0.5],[1,0.5]];portConstraint=eastwest;whiteSpace=wrap;html=1;" vertex="1" parent="heMwimYEF9W9IpmWdrQg-1">
          <mxGeometry y="118" width="170" height="60" as="geometry" />
        </mxCell>
        <mxCell id="heMwimYEF9W9IpmWdrQg-5" value="Model.Usuario" style="swimlane;fontStyle=1;align=center;verticalAlign=top;childLayout=stackLayout;horizontal=1;startSize=26;horizontalStack=0;resizeParent=1;resizeParentMax=0;resizeLast=0;collapsible=1;marginBottom=0;whiteSpace=wrap;html=1;" vertex="1" parent="1">
          <mxGeometry x="254" y="60" width="160" height="86" as="geometry" />
        </mxCell>
        <mxCell id="heMwimYEF9W9IpmWdrQg-6" value="+ field: type" style="text;strokeColor=none;fillColor=none;align=left;verticalAlign=top;spacingLeft=4;spacingRight=4;overflow=hidden;rotatable=0;points=[[0,0.5],[1,0.5]];portConstraint=eastwest;whiteSpace=wrap;html=1;" vertex="1" parent="heMwimYEF9W9IpmWdrQg-5">
          <mxGeometry y="26" width="160" height="26" as="geometry" />
        </mxCell>
        <mxCell id="heMwimYEF9W9IpmWdrQg-7" value="" style="line;strokeWidth=1;fillColor=none;align=left;verticalAlign=middle;spacingTop=-1;spacingLeft=3;spacingRight=3;rotatable=0;labelPosition=right;points=[];portConstraint=eastwest;strokeColor=inherit;" vertex="1" parent="heMwimYEF9W9IpmWdrQg-5">
          <mxGeometry y="52" width="160" height="8" as="geometry" />
        </mxCell>
        <mxCell id="heMwimYEF9W9IpmWdrQg-8" value="+ method(type): type" style="text;strokeColor=none;fillColor=none;align=left;verticalAlign=top;spacingLeft=4;spacingRight=4;overflow=hidden;rotatable=0;points=[[0,0.5],[1,0.5]];portConstraint=eastwest;whiteSpace=wrap;html=1;" vertex="1" parent="heMwimYEF9W9IpmWdrQg-5">
          <mxGeometry y="60" width="160" height="26" as="geometry" />
        </mxCell>
        <mxCell id="heMwimYEF9W9IpmWdrQg-10" value="Model.Cliente" style="swimlane;fontStyle=1;align=center;verticalAlign=top;childLayout=stackLayout;horizontal=1;startSize=26;horizontalStack=0;resizeParent=1;resizeParentMax=0;resizeLast=0;collapsible=1;marginBottom=0;whiteSpace=wrap;html=1;" vertex="1" parent="1">
          <mxGeometry x="500" y="20" width="160" height="86" as="geometry" />
        </mxCell>
        <mxCell id="heMwimYEF9W9IpmWdrQg-11" value="+ field: type" style="text;strokeColor=none;fillColor=none;align=left;verticalAlign=top;spacingLeft=4;spacingRight=4;overflow=hidden;rotatable=0;points=[[0,0.5],[1,0.5]];portConstraint=eastwest;whiteSpace=wrap;html=1;" vertex="1" parent="heMwimYEF9W9IpmWdrQg-10">
          <mxGeometry y="26" width="160" height="26" as="geometry" />
        </mxCell>
        <mxCell id="heMwimYEF9W9IpmWdrQg-12" value="" style="line;strokeWidth=1;fillColor=none;align=left;verticalAlign=middle;spacingTop=-1;spacingLeft=3;spacingRight=3;rotatable=0;labelPosition=right;points=[];portConstraint=eastwest;strokeColor=inherit;" vertex="1" parent="heMwimYEF9W9IpmWdrQg-10">
          <mxGeometry y="52" width="160" height="8" as="geometry" />
        </mxCell>
        <mxCell id="heMwimYEF9W9IpmWdrQg-13" value="+ method(type): type" style="text;strokeColor=none;fillColor=none;align=left;verticalAlign=top;spacingLeft=4;spacingRight=4;overflow=hidden;rotatable=0;points=[[0,0.5],[1,0.5]];portConstraint=eastwest;whiteSpace=wrap;html=1;" vertex="1" parent="heMwimYEF9W9IpmWdrQg-10">
          <mxGeometry y="60" width="160" height="26" as="geometry" />
        </mxCell>
        <mxCell id="heMwimYEF9W9IpmWdrQg-14" value="Model.Vendedor" style="swimlane;fontStyle=1;align=center;verticalAlign=top;childLayout=stackLayout;horizontal=1;startSize=26;horizontalStack=0;resizeParent=1;resizeParentMax=0;resizeLast=0;collapsible=1;marginBottom=0;whiteSpace=wrap;html=1;" vertex="1" parent="1">
          <mxGeometry x="500" y="120" width="160" height="86" as="geometry" />
        </mxCell>
        <mxCell id="heMwimYEF9W9IpmWdrQg-15" value="+ field: type" style="text;strokeColor=none;fillColor=none;align=left;verticalAlign=top;spacingLeft=4;spacingRight=4;overflow=hidden;rotatable=0;points=[[0,0.5],[1,0.5]];portConstraint=eastwest;whiteSpace=wrap;html=1;" vertex="1" parent="heMwimYEF9W9IpmWdrQg-14">
          <mxGeometry y="26" width="160" height="26" as="geometry" />
        </mxCell>
        <mxCell id="heMwimYEF9W9IpmWdrQg-16" value="" style="line;strokeWidth=1;fillColor=none;align=left;verticalAlign=middle;spacingTop=-1;spacingLeft=3;spacingRight=3;rotatable=0;labelPosition=right;points=[];portConstraint=eastwest;strokeColor=inherit;" vertex="1" parent="heMwimYEF9W9IpmWdrQg-14">
          <mxGeometry y="52" width="160" height="8" as="geometry" />
        </mxCell>
        <mxCell id="heMwimYEF9W9IpmWdrQg-17" value="+ method(type): type" style="text;strokeColor=none;fillColor=none;align=left;verticalAlign=top;spacingLeft=4;spacingRight=4;overflow=hidden;rotatable=0;points=[[0,0.5],[1,0.5]];portConstraint=eastwest;whiteSpace=wrap;html=1;" vertex="1" parent="heMwimYEF9W9IpmWdrQg-14">
          <mxGeometry y="60" width="160" height="26" as="geometry" />
        </mxCell>
        <mxCell id="heMwimYEF9W9IpmWdrQg-19" value="Model.Convidado" style="swimlane;fontStyle=1;align=center;verticalAlign=top;childLayout=stackLayout;horizontal=1;startSize=26;horizontalStack=0;resizeParent=1;resizeParentMax=0;resizeLast=0;collapsible=1;marginBottom=0;whiteSpace=wrap;html=1;" vertex="1" parent="1">
          <mxGeometry x="500" y="220" width="160" height="86" as="geometry" />
        </mxCell>
        <mxCell id="heMwimYEF9W9IpmWdrQg-20" value="+ field: type" style="text;strokeColor=none;fillColor=none;align=left;verticalAlign=top;spacingLeft=4;spacingRight=4;overflow=hidden;rotatable=0;points=[[0,0.5],[1,0.5]];portConstraint=eastwest;whiteSpace=wrap;html=1;" vertex="1" parent="heMwimYEF9W9IpmWdrQg-19">
          <mxGeometry y="26" width="160" height="26" as="geometry" />
        </mxCell>
        <mxCell id="heMwimYEF9W9IpmWdrQg-21" value="" style="line;strokeWidth=1;fillColor=none;align=left;verticalAlign=middle;spacingTop=-1;spacingLeft=3;spacingRight=3;rotatable=0;labelPosition=right;points=[];portConstraint=eastwest;strokeColor=inherit;" vertex="1" parent="heMwimYEF9W9IpmWdrQg-19">
          <mxGeometry y="52" width="160" height="8" as="geometry" />
        </mxCell>
        <mxCell id="heMwimYEF9W9IpmWdrQg-22" value="+ method(type): type" style="text;strokeColor=none;fillColor=none;align=left;verticalAlign=top;spacingLeft=4;spacingRight=4;overflow=hidden;rotatable=0;points=[[0,0.5],[1,0.5]];portConstraint=eastwest;whiteSpace=wrap;html=1;" vertex="1" parent="heMwimYEF9W9IpmWdrQg-19">
          <mxGeometry y="60" width="160" height="26" as="geometry" />
        </mxCell>
        <mxCell id="heMwimYEF9W9IpmWdrQg-23" value="Extends" style="endArrow=block;endSize=16;endFill=0;html=1;rounded=0;" edge="1" parent="1" source="heMwimYEF9W9IpmWdrQg-10" target="heMwimYEF9W9IpmWdrQg-5">
          <mxGeometry x="-0.0002" width="160" relative="1" as="geometry">
            <mxPoint x="580" y="30" as="sourcePoint" />
            <mxPoint x="740" y="30" as="targetPoint" />
            <mxPoint as="offset" />
          </mxGeometry>
        </mxCell>
        <mxCell id="heMwimYEF9W9IpmWdrQg-26" value="Extends" style="endArrow=block;endSize=16;endFill=0;html=1;rounded=0;" edge="1" parent="1" source="heMwimYEF9W9IpmWdrQg-14" target="heMwimYEF9W9IpmWdrQg-5">
          <mxGeometry width="160" relative="1" as="geometry">
            <mxPoint x="330" y="230" as="sourcePoint" />
            <mxPoint x="490" y="230" as="targetPoint" />
          </mxGeometry>
        </mxCell>
        <mxCell id="heMwimYEF9W9IpmWdrQg-27" value="Extends" style="endArrow=block;endSize=16;endFill=0;html=1;rounded=0;" edge="1" parent="1" source="heMwimYEF9W9IpmWdrQg-19" target="heMwimYEF9W9IpmWdrQg-5">
          <mxGeometry width="160" relative="1" as="geometry">
            <mxPoint x="330" y="230" as="sourcePoint" />
            <mxPoint x="440" y="150" as="targetPoint" />
          </mxGeometry>
        </mxCell>
        <mxCell id="heMwimYEF9W9IpmWdrQg-28" value="Model.Cupom" style="swimlane;fontStyle=1;align=center;verticalAlign=top;childLayout=stackLayout;horizontal=1;startSize=26;horizontalStack=0;resizeParent=1;resizeParentMax=0;resizeLast=0;collapsible=1;marginBottom=0;whiteSpace=wrap;html=1;" vertex="1" parent="1">
          <mxGeometry x="25" y="230" width="165" height="114" as="geometry" />
        </mxCell>
        <mxCell id="heMwimYEF9W9IpmWdrQg-29" value="+ cupom: String&lt;br&gt;+ valorDesc: double" style="text;strokeColor=none;fillColor=none;align=left;verticalAlign=top;spacingLeft=4;spacingRight=4;overflow=hidden;rotatable=0;points=[[0,0.5],[1,0.5]];portConstraint=eastwest;whiteSpace=wrap;html=1;" vertex="1" parent="heMwimYEF9W9IpmWdrQg-28">
          <mxGeometry y="26" width="165" height="54" as="geometry" />
        </mxCell>
        <mxCell id="heMwimYEF9W9IpmWdrQg-30" value="" style="line;strokeWidth=1;fillColor=none;align=left;verticalAlign=middle;spacingTop=-1;spacingLeft=3;spacingRight=3;rotatable=0;labelPosition=right;points=[];portConstraint=eastwest;strokeColor=inherit;" vertex="1" parent="heMwimYEF9W9IpmWdrQg-28">
          <mxGeometry y="80" width="165" height="8" as="geometry" />
        </mxCell>
        <mxCell id="heMwimYEF9W9IpmWdrQg-31" value="+visualizar(): String" style="text;strokeColor=none;fillColor=none;align=left;verticalAlign=top;spacingLeft=4;spacingRight=4;overflow=hidden;rotatable=0;points=[[0,0.5],[1,0.5]];portConstraint=eastwest;whiteSpace=wrap;html=1;" vertex="1" parent="heMwimYEF9W9IpmWdrQg-28">
          <mxGeometry y="88" width="165" height="26" as="geometry" />
        </mxCell>
        <mxCell id="heMwimYEF9W9IpmWdrQg-32" value="Model.DadosPgto" style="swimlane;fontStyle=1;align=center;verticalAlign=top;childLayout=stackLayout;horizontal=1;startSize=26;horizontalStack=0;resizeParent=1;resizeParentMax=0;resizeLast=0;collapsible=1;marginBottom=0;whiteSpace=wrap;html=1;" vertex="1" parent="1">
          <mxGeometry x="30" y="370" width="160" height="86" as="geometry" />
        </mxCell>
        <mxCell id="heMwimYEF9W9IpmWdrQg-33" value="+ field: type" style="text;strokeColor=none;fillColor=none;align=left;verticalAlign=top;spacingLeft=4;spacingRight=4;overflow=hidden;rotatable=0;points=[[0,0.5],[1,0.5]];portConstraint=eastwest;whiteSpace=wrap;html=1;" vertex="1" parent="heMwimYEF9W9IpmWdrQg-32">
          <mxGeometry y="26" width="160" height="26" as="geometry" />
        </mxCell>
        <mxCell id="heMwimYEF9W9IpmWdrQg-34" value="" style="line;strokeWidth=1;fillColor=none;align=left;verticalAlign=middle;spacingTop=-1;spacingLeft=3;spacingRight=3;rotatable=0;labelPosition=right;points=[];portConstraint=eastwest;strokeColor=inherit;" vertex="1" parent="heMwimYEF9W9IpmWdrQg-32">
          <mxGeometry y="52" width="160" height="8" as="geometry" />
        </mxCell>
        <mxCell id="heMwimYEF9W9IpmWdrQg-35" value="+ method(type): type" style="text;strokeColor=none;fillColor=none;align=left;verticalAlign=top;spacingLeft=4;spacingRight=4;overflow=hidden;rotatable=0;points=[[0,0.5],[1,0.5]];portConstraint=eastwest;whiteSpace=wrap;html=1;" vertex="1" parent="heMwimYEF9W9IpmWdrQg-32">
          <mxGeometry y="60" width="160" height="26" as="geometry" />
        </mxCell>
        <mxCell id="heMwimYEF9W9IpmWdrQg-36" value="Model.DadosEntrega" style="swimlane;fontStyle=1;align=center;verticalAlign=top;childLayout=stackLayout;horizontal=1;startSize=26;horizontalStack=0;resizeParent=1;resizeParentMax=0;resizeLast=0;collapsible=1;marginBottom=0;whiteSpace=wrap;html=1;" vertex="1" parent="1">
          <mxGeometry x="220" y="370" width="160" height="86" as="geometry" />
        </mxCell>
        <mxCell id="heMwimYEF9W9IpmWdrQg-37" value="+ field: type" style="text;strokeColor=none;fillColor=none;align=left;verticalAlign=top;spacingLeft=4;spacingRight=4;overflow=hidden;rotatable=0;points=[[0,0.5],[1,0.5]];portConstraint=eastwest;whiteSpace=wrap;html=1;" vertex="1" parent="heMwimYEF9W9IpmWdrQg-36">
          <mxGeometry y="26" width="160" height="26" as="geometry" />
        </mxCell>
        <mxCell id="heMwimYEF9W9IpmWdrQg-38" value="" style="line;strokeWidth=1;fillColor=none;align=left;verticalAlign=middle;spacingTop=-1;spacingLeft=3;spacingRight=3;rotatable=0;labelPosition=right;points=[];portConstraint=eastwest;strokeColor=inherit;" vertex="1" parent="heMwimYEF9W9IpmWdrQg-36">
          <mxGeometry y="52" width="160" height="8" as="geometry" />
        </mxCell>
        <mxCell id="heMwimYEF9W9IpmWdrQg-39" value="+ method(type): type" style="text;strokeColor=none;fillColor=none;align=left;verticalAlign=top;spacingLeft=4;spacingRight=4;overflow=hidden;rotatable=0;points=[[0,0.5],[1,0.5]];portConstraint=eastwest;whiteSpace=wrap;html=1;" vertex="1" parent="heMwimYEF9W9IpmWdrQg-36">
          <mxGeometry y="60" width="160" height="26" as="geometry" />
        </mxCell>
        <mxCell id="heMwimYEF9W9IpmWdrQg-40" value="Model.FAC" style="swimlane;fontStyle=1;align=center;verticalAlign=top;childLayout=stackLayout;horizontal=1;startSize=26;horizontalStack=0;resizeParent=1;resizeParentMax=0;resizeLast=0;collapsible=1;marginBottom=0;whiteSpace=wrap;html=1;" vertex="1" parent="1">
          <mxGeometry x="230" y="230" width="160" height="100" as="geometry" />
        </mxCell>
        <mxCell id="heMwimYEF9W9IpmWdrQg-41" value="+ pergunta: String&lt;br&gt;+ resposta: String" style="text;strokeColor=none;fillColor=none;align=left;verticalAlign=top;spacingLeft=4;spacingRight=4;overflow=hidden;rotatable=0;points=[[0,0.5],[1,0.5]];portConstraint=eastwest;whiteSpace=wrap;html=1;" vertex="1" parent="heMwimYEF9W9IpmWdrQg-40">
          <mxGeometry y="26" width="160" height="34" as="geometry" />
        </mxCell>
        <mxCell id="heMwimYEF9W9IpmWdrQg-42" value="" style="line;strokeWidth=1;fillColor=none;align=left;verticalAlign=middle;spacingTop=-1;spacingLeft=3;spacingRight=3;rotatable=0;labelPosition=right;points=[];portConstraint=eastwest;strokeColor=inherit;" vertex="1" parent="heMwimYEF9W9IpmWdrQg-40">
          <mxGeometry y="60" width="160" height="18" as="geometry" />
        </mxCell>
        <mxCell id="heMwimYEF9W9IpmWdrQg-43" value="+ visualizar(): String" style="text;strokeColor=none;fillColor=none;align=left;verticalAlign=top;spacingLeft=4;spacingRight=4;overflow=hidden;rotatable=0;points=[[0,0.5],[1,0.5]];portConstraint=eastwest;whiteSpace=wrap;html=1;" vertex="1" parent="heMwimYEF9W9IpmWdrQg-40">
          <mxGeometry y="78" width="160" height="22" as="geometry" />
        </mxCell>
        <mxCell id="heMwimYEF9W9IpmWdrQg-44" value="Model.Review" style="swimlane;fontStyle=1;align=center;verticalAlign=top;childLayout=stackLayout;horizontal=1;startSize=26;horizontalStack=0;resizeParent=1;resizeParentMax=0;resizeLast=0;collapsible=1;marginBottom=0;whiteSpace=wrap;html=1;" vertex="1" parent="1">
          <mxGeometry x="400" y="366" width="160" height="94" as="geometry" />
        </mxCell>
        <mxCell id="heMwimYEF9W9IpmWdrQg-45" value="+ nota: int&lt;br&gt;+ comentarioi: String" style="text;strokeColor=none;fillColor=none;align=left;verticalAlign=top;spacingLeft=4;spacingRight=4;overflow=hidden;rotatable=0;points=[[0,0.5],[1,0.5]];portConstraint=eastwest;whiteSpace=wrap;html=1;" vertex="1" parent="heMwimYEF9W9IpmWdrQg-44">
          <mxGeometry y="26" width="160" height="34" as="geometry" />
        </mxCell>
        <mxCell id="heMwimYEF9W9IpmWdrQg-46" value="" style="line;strokeWidth=1;fillColor=none;align=left;verticalAlign=middle;spacingTop=-1;spacingLeft=3;spacingRight=3;rotatable=0;labelPosition=right;points=[];portConstraint=eastwest;strokeColor=inherit;" vertex="1" parent="heMwimYEF9W9IpmWdrQg-44">
          <mxGeometry y="60" width="160" height="8" as="geometry" />
        </mxCell>
        <mxCell id="heMwimYEF9W9IpmWdrQg-47" value="+ visualizar(): String" style="text;strokeColor=none;fillColor=none;align=left;verticalAlign=top;spacingLeft=4;spacingRight=4;overflow=hidden;rotatable=0;points=[[0,0.5],[1,0.5]];portConstraint=eastwest;whiteSpace=wrap;html=1;" vertex="1" parent="heMwimYEF9W9IpmWdrQg-44">
          <mxGeometry y="68" width="160" height="26" as="geometry" />
        </mxCell>
        <mxCell id="heMwimYEF9W9IpmWdrQg-48" value="Controller.Produtos" style="swimlane;fontStyle=1;align=center;verticalAlign=top;childLayout=stackLayout;horizontal=1;startSize=26;horizontalStack=0;resizeParent=1;resizeParentMax=0;resizeLast=0;collapsible=1;marginBottom=0;whiteSpace=wrap;html=1;" vertex="1" parent="1">
          <mxGeometry x="15" y="490" width="225" height="108" as="geometry" />
        </mxCell>
        <mxCell id="heMwimYEF9W9IpmWdrQg-49" value="+ field: type" style="text;strokeColor=none;fillColor=none;align=left;verticalAlign=top;spacingLeft=4;spacingRight=4;overflow=hidden;rotatable=0;points=[[0,0.5],[1,0.5]];portConstraint=eastwest;whiteSpace=wrap;html=1;" vertex="1" parent="heMwimYEF9W9IpmWdrQg-48">
          <mxGeometry y="26" width="225" height="24" as="geometry" />
        </mxCell>
        <mxCell id="heMwimYEF9W9IpmWdrQg-50" value="" style="line;strokeWidth=1;fillColor=none;align=left;verticalAlign=middle;spacingTop=-1;spacingLeft=3;spacingRight=3;rotatable=0;labelPosition=right;points=[];portConstraint=eastwest;strokeColor=inherit;" vertex="1" parent="heMwimYEF9W9IpmWdrQg-48">
          <mxGeometry y="50" width="225" height="8" as="geometry" />
        </mxCell>
        <mxCell id="heMwimYEF9W9IpmWdrQg-51" value="+ mostrarLista(): ArrayList(Produto)" style="text;strokeColor=none;fillColor=none;align=left;verticalAlign=top;spacingLeft=4;spacingRight=4;overflow=hidden;rotatable=0;points=[[0,0.5],[1,0.5]];portConstraint=eastwest;whiteSpace=wrap;html=1;" vertex="1" parent="heMwimYEF9W9IpmWdrQg-48">
          <mxGeometry y="58" width="225" height="50" as="geometry" />
        </mxCell>
        <mxCell id="heMwimYEF9W9IpmWdrQg-52" value="Controller.Carrinho" style="swimlane;fontStyle=1;align=center;verticalAlign=top;childLayout=stackLayout;horizontal=1;startSize=26;horizontalStack=0;resizeParent=1;resizeParentMax=0;resizeLast=0;collapsible=1;marginBottom=0;whiteSpace=wrap;html=1;" vertex="1" parent="1">
          <mxGeometry x="20" y="610" width="270" height="120" as="geometry" />
        </mxCell>
        <mxCell id="heMwimYEF9W9IpmWdrQg-53" value="+ listaProdutos: ArrayList(Produtos)" style="text;strokeColor=none;fillColor=none;align=left;verticalAlign=top;spacingLeft=4;spacingRight=4;overflow=hidden;rotatable=0;points=[[0,0.5],[1,0.5]];portConstraint=eastwest;whiteSpace=wrap;html=1;" vertex="1" parent="heMwimYEF9W9IpmWdrQg-52">
          <mxGeometry y="26" width="270" height="34" as="geometry" />
        </mxCell>
        <mxCell id="heMwimYEF9W9IpmWdrQg-54" value="" style="line;strokeWidth=1;fillColor=none;align=left;verticalAlign=middle;spacingTop=-1;spacingLeft=3;spacingRight=3;rotatable=0;labelPosition=right;points=[];portConstraint=eastwest;strokeColor=inherit;" vertex="1" parent="heMwimYEF9W9IpmWdrQg-52">
          <mxGeometry y="60" width="270" height="8" as="geometry" />
        </mxCell>
        <mxCell id="heMwimYEF9W9IpmWdrQg-55" value="+ visualizarListaProdutos(): ArrayList(Produtos)&lt;br&gt;+ adicionaProduto(Produto): boolean&lt;br&gt;+removerProduto(Produto): boolean&amp;nbsp;" style="text;strokeColor=none;fillColor=none;align=left;verticalAlign=top;spacingLeft=4;spacingRight=4;overflow=hidden;rotatable=0;points=[[0,0.5],[1,0.5]];portConstraint=eastwest;whiteSpace=wrap;html=1;" vertex="1" parent="heMwimYEF9W9IpmWdrQg-52">
          <mxGeometry y="68" width="270" height="52" as="geometry" />
        </mxCell>
        <mxCell id="heMwimYEF9W9IpmWdrQg-56" value="Controller.Compra" style="swimlane;fontStyle=1;align=center;verticalAlign=top;childLayout=stackLayout;horizontal=1;startSize=26;horizontalStack=0;resizeParent=1;resizeParentMax=0;resizeLast=0;collapsible=1;marginBottom=0;whiteSpace=wrap;html=1;" vertex="1" parent="1">
          <mxGeometry x="15" y="740" width="180" height="86" as="geometry" />
        </mxCell>
        <mxCell id="heMwimYEF9W9IpmWdrQg-57" value="+ : type" style="text;strokeColor=none;fillColor=none;align=left;verticalAlign=top;spacingLeft=4;spacingRight=4;overflow=hidden;rotatable=0;points=[[0,0.5],[1,0.5]];portConstraint=eastwest;whiteSpace=wrap;html=1;" vertex="1" parent="heMwimYEF9W9IpmWdrQg-56">
          <mxGeometry y="26" width="180" height="26" as="geometry" />
        </mxCell>
        <mxCell id="heMwimYEF9W9IpmWdrQg-58" value="" style="line;strokeWidth=1;fillColor=none;align=left;verticalAlign=middle;spacingTop=-1;spacingLeft=3;spacingRight=3;rotatable=0;labelPosition=right;points=[];portConstraint=eastwest;strokeColor=inherit;" vertex="1" parent="heMwimYEF9W9IpmWdrQg-56">
          <mxGeometry y="52" width="180" height="8" as="geometry" />
        </mxCell>
        <mxCell id="heMwimYEF9W9IpmWdrQg-59" value="+ efetivaCompra(): boolean" style="text;strokeColor=none;fillColor=none;align=left;verticalAlign=top;spacingLeft=4;spacingRight=4;overflow=hidden;rotatable=0;points=[[0,0.5],[1,0.5]];portConstraint=eastwest;whiteSpace=wrap;html=1;" vertex="1" parent="heMwimYEF9W9IpmWdrQg-56">
          <mxGeometry y="60" width="180" height="26" as="geometry" />
        </mxCell>
        <mxCell id="heMwimYEF9W9IpmWdrQg-60" value="Controller.Reviews" style="swimlane;fontStyle=1;align=center;verticalAlign=top;childLayout=stackLayout;horizontal=1;startSize=26;horizontalStack=0;resizeParent=1;resizeParentMax=0;resizeLast=0;collapsible=1;marginBottom=0;whiteSpace=wrap;html=1;" vertex="1" parent="1">
          <mxGeometry x="660" y="510" width="160" height="86" as="geometry" />
        </mxCell>
        <mxCell id="heMwimYEF9W9IpmWdrQg-61" value="+ field: type" style="text;strokeColor=none;fillColor=none;align=left;verticalAlign=top;spacingLeft=4;spacingRight=4;overflow=hidden;rotatable=0;points=[[0,0.5],[1,0.5]];portConstraint=eastwest;whiteSpace=wrap;html=1;" vertex="1" parent="heMwimYEF9W9IpmWdrQg-60">
          <mxGeometry y="26" width="160" height="26" as="geometry" />
        </mxCell>
        <mxCell id="heMwimYEF9W9IpmWdrQg-62" value="" style="line;strokeWidth=1;fillColor=none;align=left;verticalAlign=middle;spacingTop=-1;spacingLeft=3;spacingRight=3;rotatable=0;labelPosition=right;points=[];portConstraint=eastwest;strokeColor=inherit;" vertex="1" parent="heMwimYEF9W9IpmWdrQg-60">
          <mxGeometry y="52" width="160" height="8" as="geometry" />
        </mxCell>
        <mxCell id="heMwimYEF9W9IpmWdrQg-63" value="+ method(type): type" style="text;strokeColor=none;fillColor=none;align=left;verticalAlign=top;spacingLeft=4;spacingRight=4;overflow=hidden;rotatable=0;points=[[0,0.5],[1,0.5]];portConstraint=eastwest;whiteSpace=wrap;html=1;" vertex="1" parent="heMwimYEF9W9IpmWdrQg-60">
          <mxGeometry y="60" width="160" height="26" as="geometry" />
        </mxCell>
        <mxCell id="heMwimYEF9W9IpmWdrQg-64" value="Controller.Perguntas" style="swimlane;fontStyle=1;align=center;verticalAlign=top;childLayout=stackLayout;horizontal=1;startSize=26;horizontalStack=0;resizeParent=1;resizeParentMax=0;resizeLast=0;collapsible=1;marginBottom=0;whiteSpace=wrap;html=1;" vertex="1" parent="1">
          <mxGeometry x="660" y="620" width="160" height="86" as="geometry" />
        </mxCell>
        <mxCell id="heMwimYEF9W9IpmWdrQg-65" value="+ field: type" style="text;strokeColor=none;fillColor=none;align=left;verticalAlign=top;spacingLeft=4;spacingRight=4;overflow=hidden;rotatable=0;points=[[0,0.5],[1,0.5]];portConstraint=eastwest;whiteSpace=wrap;html=1;" vertex="1" parent="heMwimYEF9W9IpmWdrQg-64">
          <mxGeometry y="26" width="160" height="26" as="geometry" />
        </mxCell>
        <mxCell id="heMwimYEF9W9IpmWdrQg-66" value="" style="line;strokeWidth=1;fillColor=none;align=left;verticalAlign=middle;spacingTop=-1;spacingLeft=3;spacingRight=3;rotatable=0;labelPosition=right;points=[];portConstraint=eastwest;strokeColor=inherit;" vertex="1" parent="heMwimYEF9W9IpmWdrQg-64">
          <mxGeometry y="52" width="160" height="8" as="geometry" />
        </mxCell>
        <mxCell id="heMwimYEF9W9IpmWdrQg-67" value="+ method(type): type" style="text;strokeColor=none;fillColor=none;align=left;verticalAlign=top;spacingLeft=4;spacingRight=4;overflow=hidden;rotatable=0;points=[[0,0.5],[1,0.5]];portConstraint=eastwest;whiteSpace=wrap;html=1;" vertex="1" parent="heMwimYEF9W9IpmWdrQg-64">
          <mxGeometry y="60" width="160" height="26" as="geometry" />
        </mxCell>
        <mxCell id="heMwimYEF9W9IpmWdrQg-68" value="Controller.Usuario" style="swimlane;fontStyle=1;align=center;verticalAlign=top;childLayout=stackLayout;horizontal=1;startSize=26;horizontalStack=0;resizeParent=1;resizeParentMax=0;resizeLast=0;collapsible=1;marginBottom=0;whiteSpace=wrap;html=1;" vertex="1" parent="1">
          <mxGeometry x="490" y="590" width="160" height="86" as="geometry" />
        </mxCell>
        <mxCell id="heMwimYEF9W9IpmWdrQg-69" value="+ field: type" style="text;strokeColor=none;fillColor=none;align=left;verticalAlign=top;spacingLeft=4;spacingRight=4;overflow=hidden;rotatable=0;points=[[0,0.5],[1,0.5]];portConstraint=eastwest;whiteSpace=wrap;html=1;" vertex="1" parent="heMwimYEF9W9IpmWdrQg-68">
          <mxGeometry y="26" width="160" height="26" as="geometry" />
        </mxCell>
        <mxCell id="heMwimYEF9W9IpmWdrQg-70" value="" style="line;strokeWidth=1;fillColor=none;align=left;verticalAlign=middle;spacingTop=-1;spacingLeft=3;spacingRight=3;rotatable=0;labelPosition=right;points=[];portConstraint=eastwest;strokeColor=inherit;" vertex="1" parent="heMwimYEF9W9IpmWdrQg-68">
          <mxGeometry y="52" width="160" height="8" as="geometry" />
        </mxCell>
        <mxCell id="heMwimYEF9W9IpmWdrQg-71" value="+ method(type): type" style="text;strokeColor=none;fillColor=none;align=left;verticalAlign=top;spacingLeft=4;spacingRight=4;overflow=hidden;rotatable=0;points=[[0,0.5],[1,0.5]];portConstraint=eastwest;whiteSpace=wrap;html=1;" vertex="1" parent="heMwimYEF9W9IpmWdrQg-68">
          <mxGeometry y="60" width="160" height="26" as="geometry" />
        </mxCell>
        <mxCell id="heMwimYEF9W9IpmWdrQg-72" value="Controller.Pedidos" style="swimlane;fontStyle=1;align=center;verticalAlign=top;childLayout=stackLayout;horizontal=1;startSize=26;horizontalStack=0;resizeParent=1;resizeParentMax=0;resizeLast=0;collapsible=1;marginBottom=0;whiteSpace=wrap;html=1;" vertex="1" parent="1">
          <mxGeometry x="660" y="830" width="160" height="86" as="geometry" />
        </mxCell>
        <mxCell id="heMwimYEF9W9IpmWdrQg-73" value="+ field: type" style="text;strokeColor=none;fillColor=none;align=left;verticalAlign=top;spacingLeft=4;spacingRight=4;overflow=hidden;rotatable=0;points=[[0,0.5],[1,0.5]];portConstraint=eastwest;whiteSpace=wrap;html=1;" vertex="1" parent="heMwimYEF9W9IpmWdrQg-72">
          <mxGeometry y="26" width="160" height="26" as="geometry" />
        </mxCell>
        <mxCell id="heMwimYEF9W9IpmWdrQg-74" value="" style="line;strokeWidth=1;fillColor=none;align=left;verticalAlign=middle;spacingTop=-1;spacingLeft=3;spacingRight=3;rotatable=0;labelPosition=right;points=[];portConstraint=eastwest;strokeColor=inherit;" vertex="1" parent="heMwimYEF9W9IpmWdrQg-72">
          <mxGeometry y="52" width="160" height="8" as="geometry" />
        </mxCell>
        <mxCell id="heMwimYEF9W9IpmWdrQg-75" value="+ method(type): type" style="text;strokeColor=none;fillColor=none;align=left;verticalAlign=top;spacingLeft=4;spacingRight=4;overflow=hidden;rotatable=0;points=[[0,0.5],[1,0.5]];portConstraint=eastwest;whiteSpace=wrap;html=1;" vertex="1" parent="heMwimYEF9W9IpmWdrQg-72">
          <mxGeometry y="60" width="160" height="26" as="geometry" />
        </mxCell>
        <mxCell id="heMwimYEF9W9IpmWdrQg-76" value="Model.Pedido" style="swimlane;fontStyle=1;align=center;verticalAlign=top;childLayout=stackLayout;horizontal=1;startSize=26;horizontalStack=0;resizeParent=1;resizeParentMax=0;resizeLast=0;collapsible=1;marginBottom=0;whiteSpace=wrap;html=1;" vertex="1" parent="1">
          <mxGeometry x="580" y="370" width="160" height="86" as="geometry" />
        </mxCell>
        <mxCell id="heMwimYEF9W9IpmWdrQg-77" value="+ field: type" style="text;strokeColor=none;fillColor=none;align=left;verticalAlign=top;spacingLeft=4;spacingRight=4;overflow=hidden;rotatable=0;points=[[0,0.5],[1,0.5]];portConstraint=eastwest;whiteSpace=wrap;html=1;" vertex="1" parent="heMwimYEF9W9IpmWdrQg-76">
          <mxGeometry y="26" width="160" height="26" as="geometry" />
        </mxCell>
        <mxCell id="heMwimYEF9W9IpmWdrQg-78" value="" style="line;strokeWidth=1;fillColor=none;align=left;verticalAlign=middle;spacingTop=-1;spacingLeft=3;spacingRight=3;rotatable=0;labelPosition=right;points=[];portConstraint=eastwest;strokeColor=inherit;" vertex="1" parent="heMwimYEF9W9IpmWdrQg-76">
          <mxGeometry y="52" width="160" height="8" as="geometry" />
        </mxCell>
        <mxCell id="heMwimYEF9W9IpmWdrQg-79" value="+ method(type): type" style="text;strokeColor=none;fillColor=none;align=left;verticalAlign=top;spacingLeft=4;spacingRight=4;overflow=hidden;rotatable=0;points=[[0,0.5],[1,0.5]];portConstraint=eastwest;whiteSpace=wrap;html=1;" vertex="1" parent="heMwimYEF9W9IpmWdrQg-76">
          <mxGeometry y="60" width="160" height="26" as="geometry" />
        </mxCell>
        <mxCell id="heMwimYEF9W9IpmWdrQg-80" value="Controller.Cupom" style="swimlane;fontStyle=1;align=center;verticalAlign=top;childLayout=stackLayout;horizontal=1;startSize=26;horizontalStack=0;resizeParent=1;resizeParentMax=0;resizeLast=0;collapsible=1;marginBottom=0;whiteSpace=wrap;html=1;" vertex="1" parent="1">
          <mxGeometry x="667" y="730" width="160" height="86" as="geometry" />
        </mxCell>
        <mxCell id="heMwimYEF9W9IpmWdrQg-81" value="+ field: type" style="text;strokeColor=none;fillColor=none;align=left;verticalAlign=top;spacingLeft=4;spacingRight=4;overflow=hidden;rotatable=0;points=[[0,0.5],[1,0.5]];portConstraint=eastwest;whiteSpace=wrap;html=1;" vertex="1" parent="heMwimYEF9W9IpmWdrQg-80">
          <mxGeometry y="26" width="160" height="26" as="geometry" />
        </mxCell>
        <mxCell id="heMwimYEF9W9IpmWdrQg-82" value="" style="line;strokeWidth=1;fillColor=none;align=left;verticalAlign=middle;spacingTop=-1;spacingLeft=3;spacingRight=3;rotatable=0;labelPosition=right;points=[];portConstraint=eastwest;strokeColor=inherit;" vertex="1" parent="heMwimYEF9W9IpmWdrQg-80">
          <mxGeometry y="52" width="160" height="8" as="geometry" />
        </mxCell>
        <mxCell id="heMwimYEF9W9IpmWdrQg-83" value="+ method(type): type" style="text;strokeColor=none;fillColor=none;align=left;verticalAlign=top;spacingLeft=4;spacingRight=4;overflow=hidden;rotatable=0;points=[[0,0.5],[1,0.5]];portConstraint=eastwest;whiteSpace=wrap;html=1;" vertex="1" parent="heMwimYEF9W9IpmWdrQg-80">
          <mxGeometry y="60" width="160" height="26" as="geometry" />
        </mxCell>
        <mxCell id="heMwimYEF9W9IpmWdrQg-84" value="Controller.CEP" style="swimlane;fontStyle=1;align=center;verticalAlign=top;childLayout=stackLayout;horizontal=1;startSize=26;horizontalStack=0;resizeParent=1;resizeParentMax=0;resizeLast=0;collapsible=1;marginBottom=0;whiteSpace=wrap;html=1;" vertex="1" parent="1">
          <mxGeometry x="470" y="706" width="160" height="86" as="geometry" />
        </mxCell>
        <mxCell id="heMwimYEF9W9IpmWdrQg-85" value="+ field: type" style="text;strokeColor=none;fillColor=none;align=left;verticalAlign=top;spacingLeft=4;spacingRight=4;overflow=hidden;rotatable=0;points=[[0,0.5],[1,0.5]];portConstraint=eastwest;whiteSpace=wrap;html=1;" vertex="1" parent="heMwimYEF9W9IpmWdrQg-84">
          <mxGeometry y="26" width="160" height="26" as="geometry" />
        </mxCell>
        <mxCell id="heMwimYEF9W9IpmWdrQg-86" value="" style="line;strokeWidth=1;fillColor=none;align=left;verticalAlign=middle;spacingTop=-1;spacingLeft=3;spacingRight=3;rotatable=0;labelPosition=right;points=[];portConstraint=eastwest;strokeColor=inherit;" vertex="1" parent="heMwimYEF9W9IpmWdrQg-84">
          <mxGeometry y="52" width="160" height="8" as="geometry" />
        </mxCell>
        <mxCell id="heMwimYEF9W9IpmWdrQg-87" value="+ method(type): type" style="text;strokeColor=none;fillColor=none;align=left;verticalAlign=top;spacingLeft=4;spacingRight=4;overflow=hidden;rotatable=0;points=[[0,0.5],[1,0.5]];portConstraint=eastwest;whiteSpace=wrap;html=1;" vertex="1" parent="heMwimYEF9W9IpmWdrQg-84">
          <mxGeometry y="60" width="160" height="26" as="geometry" />
        </mxCell>
        <mxCell id="heMwimYEF9W9IpmWdrQg-88" value="View.Menu" style="swimlane;fontStyle=1;align=center;verticalAlign=top;childLayout=stackLayout;horizontal=1;startSize=26;horizontalStack=0;resizeParent=1;resizeParentMax=0;resizeLast=0;collapsible=1;marginBottom=0;whiteSpace=wrap;html=1;" vertex="1" parent="1">
          <mxGeometry x="250" y="1000" width="160" height="86" as="geometry" />
        </mxCell>
        <mxCell id="heMwimYEF9W9IpmWdrQg-89" value="+ field: type" style="text;strokeColor=none;fillColor=none;align=left;verticalAlign=top;spacingLeft=4;spacingRight=4;overflow=hidden;rotatable=0;points=[[0,0.5],[1,0.5]];portConstraint=eastwest;whiteSpace=wrap;html=1;" vertex="1" parent="heMwimYEF9W9IpmWdrQg-88">
          <mxGeometry y="26" width="160" height="26" as="geometry" />
        </mxCell>
        <mxCell id="heMwimYEF9W9IpmWdrQg-90" value="" style="line;strokeWidth=1;fillColor=none;align=left;verticalAlign=middle;spacingTop=-1;spacingLeft=3;spacingRight=3;rotatable=0;labelPosition=right;points=[];portConstraint=eastwest;strokeColor=inherit;" vertex="1" parent="heMwimYEF9W9IpmWdrQg-88">
          <mxGeometry y="52" width="160" height="8" as="geometry" />
        </mxCell>
        <mxCell id="heMwimYEF9W9IpmWdrQg-91" value="+ method(type): type" style="text;strokeColor=none;fillColor=none;align=left;verticalAlign=top;spacingLeft=4;spacingRight=4;overflow=hidden;rotatable=0;points=[[0,0.5],[1,0.5]];portConstraint=eastwest;whiteSpace=wrap;html=1;" vertex="1" parent="heMwimYEF9W9IpmWdrQg-88">
          <mxGeometry y="60" width="160" height="26" as="geometry" />
        </mxCell>
        <mxCell id="heMwimYEF9W9IpmWdrQg-92" value="View.Login" style="swimlane;fontStyle=1;align=center;verticalAlign=top;childLayout=stackLayout;horizontal=1;startSize=26;horizontalStack=0;resizeParent=1;resizeParentMax=0;resizeLast=0;collapsible=1;marginBottom=0;whiteSpace=wrap;html=1;" vertex="1" parent="1">
          <mxGeometry x="470" y="1000" width="160" height="86" as="geometry" />
        </mxCell>
        <mxCell id="heMwimYEF9W9IpmWdrQg-93" value="+ field: type" style="text;strokeColor=none;fillColor=none;align=left;verticalAlign=top;spacingLeft=4;spacingRight=4;overflow=hidden;rotatable=0;points=[[0,0.5],[1,0.5]];portConstraint=eastwest;whiteSpace=wrap;html=1;" vertex="1" parent="heMwimYEF9W9IpmWdrQg-92">
          <mxGeometry y="26" width="160" height="26" as="geometry" />
        </mxCell>
        <mxCell id="heMwimYEF9W9IpmWdrQg-94" value="" style="line;strokeWidth=1;fillColor=none;align=left;verticalAlign=middle;spacingTop=-1;spacingLeft=3;spacingRight=3;rotatable=0;labelPosition=right;points=[];portConstraint=eastwest;strokeColor=inherit;" vertex="1" parent="heMwimYEF9W9IpmWdrQg-92">
          <mxGeometry y="52" width="160" height="8" as="geometry" />
        </mxCell>
        <mxCell id="heMwimYEF9W9IpmWdrQg-95" value="+ method(type): type" style="text;strokeColor=none;fillColor=none;align=left;verticalAlign=top;spacingLeft=4;spacingRight=4;overflow=hidden;rotatable=0;points=[[0,0.5],[1,0.5]];portConstraint=eastwest;whiteSpace=wrap;html=1;" vertex="1" parent="heMwimYEF9W9IpmWdrQg-92">
          <mxGeometry y="60" width="160" height="26" as="geometry" />
        </mxCell>
        <mxCell id="heMwimYEF9W9IpmWdrQg-96" value="View.Produtos" style="swimlane;fontStyle=1;align=center;verticalAlign=top;childLayout=stackLayout;horizontal=1;startSize=26;horizontalStack=0;resizeParent=1;resizeParentMax=0;resizeLast=0;collapsible=1;marginBottom=0;whiteSpace=wrap;html=1;" vertex="1" parent="1">
          <mxGeometry x="667" y="1020" width="160" height="86" as="geometry" />
        </mxCell>
        <mxCell id="heMwimYEF9W9IpmWdrQg-97" value="+ field: type" style="text;strokeColor=none;fillColor=none;align=left;verticalAlign=top;spacingLeft=4;spacingRight=4;overflow=hidden;rotatable=0;points=[[0,0.5],[1,0.5]];portConstraint=eastwest;whiteSpace=wrap;html=1;" vertex="1" parent="heMwimYEF9W9IpmWdrQg-96">
          <mxGeometry y="26" width="160" height="26" as="geometry" />
        </mxCell>
        <mxCell id="heMwimYEF9W9IpmWdrQg-98" value="" style="line;strokeWidth=1;fillColor=none;align=left;verticalAlign=middle;spacingTop=-1;spacingLeft=3;spacingRight=3;rotatable=0;labelPosition=right;points=[];portConstraint=eastwest;strokeColor=inherit;" vertex="1" parent="heMwimYEF9W9IpmWdrQg-96">
          <mxGeometry y="52" width="160" height="8" as="geometry" />
        </mxCell>
        <mxCell id="heMwimYEF9W9IpmWdrQg-99" value="+ method(type): type" style="text;strokeColor=none;fillColor=none;align=left;verticalAlign=top;spacingLeft=4;spacingRight=4;overflow=hidden;rotatable=0;points=[[0,0.5],[1,0.5]];portConstraint=eastwest;whiteSpace=wrap;html=1;" vertex="1" parent="heMwimYEF9W9IpmWdrQg-96">
          <mxGeometry y="60" width="160" height="26" as="geometry" />
        </mxCell>
        <mxCell id="heMwimYEF9W9IpmWdrQg-100" value="View.Carrinho" style="swimlane;fontStyle=1;align=center;verticalAlign=top;childLayout=stackLayout;horizontal=1;startSize=26;horizontalStack=0;resizeParent=1;resizeParentMax=0;resizeLast=0;collapsible=1;marginBottom=0;whiteSpace=wrap;html=1;" vertex="1" parent="1">
          <mxGeometry x="40" y="1050" width="160" height="86" as="geometry" />
        </mxCell>
        <mxCell id="heMwimYEF9W9IpmWdrQg-101" value="+ field: type" style="text;strokeColor=none;fillColor=none;align=left;verticalAlign=top;spacingLeft=4;spacingRight=4;overflow=hidden;rotatable=0;points=[[0,0.5],[1,0.5]];portConstraint=eastwest;whiteSpace=wrap;html=1;" vertex="1" parent="heMwimYEF9W9IpmWdrQg-100">
          <mxGeometry y="26" width="160" height="26" as="geometry" />
        </mxCell>
        <mxCell id="heMwimYEF9W9IpmWdrQg-102" value="" style="line;strokeWidth=1;fillColor=none;align=left;verticalAlign=middle;spacingTop=-1;spacingLeft=3;spacingRight=3;rotatable=0;labelPosition=right;points=[];portConstraint=eastwest;strokeColor=inherit;" vertex="1" parent="heMwimYEF9W9IpmWdrQg-100">
          <mxGeometry y="52" width="160" height="8" as="geometry" />
        </mxCell>
        <mxCell id="heMwimYEF9W9IpmWdrQg-103" value="+ method(type): type" style="text;strokeColor=none;fillColor=none;align=left;verticalAlign=top;spacingLeft=4;spacingRight=4;overflow=hidden;rotatable=0;points=[[0,0.5],[1,0.5]];portConstraint=eastwest;whiteSpace=wrap;html=1;" vertex="1" parent="heMwimYEF9W9IpmWdrQg-100">
          <mxGeometry y="60" width="160" height="26" as="geometry" />
        </mxCell>
        <mxCell id="heMwimYEF9W9IpmWdrQg-104" value="View.Produto" style="swimlane;fontStyle=1;align=center;verticalAlign=top;childLayout=stackLayout;horizontal=1;startSize=26;horizontalStack=0;resizeParent=1;resizeParentMax=0;resizeLast=0;collapsible=1;marginBottom=0;whiteSpace=wrap;html=1;" vertex="1" parent="1">
          <mxGeometry x="100" y="1156" width="160" height="86" as="geometry" />
        </mxCell>
        <mxCell id="heMwimYEF9W9IpmWdrQg-105" value="+ field: type" style="text;strokeColor=none;fillColor=none;align=left;verticalAlign=top;spacingLeft=4;spacingRight=4;overflow=hidden;rotatable=0;points=[[0,0.5],[1,0.5]];portConstraint=eastwest;whiteSpace=wrap;html=1;" vertex="1" parent="heMwimYEF9W9IpmWdrQg-104">
          <mxGeometry y="26" width="160" height="26" as="geometry" />
        </mxCell>
        <mxCell id="heMwimYEF9W9IpmWdrQg-106" value="" style="line;strokeWidth=1;fillColor=none;align=left;verticalAlign=middle;spacingTop=-1;spacingLeft=3;spacingRight=3;rotatable=0;labelPosition=right;points=[];portConstraint=eastwest;strokeColor=inherit;" vertex="1" parent="heMwimYEF9W9IpmWdrQg-104">
          <mxGeometry y="52" width="160" height="8" as="geometry" />
        </mxCell>
        <mxCell id="heMwimYEF9W9IpmWdrQg-107" value="+ method(type): type" style="text;strokeColor=none;fillColor=none;align=left;verticalAlign=top;spacingLeft=4;spacingRight=4;overflow=hidden;rotatable=0;points=[[0,0.5],[1,0.5]];portConstraint=eastwest;whiteSpace=wrap;html=1;" vertex="1" parent="heMwimYEF9W9IpmWdrQg-104">
          <mxGeometry y="60" width="160" height="26" as="geometry" />
        </mxCell>
        <mxCell id="heMwimYEF9W9IpmWdrQg-114" value="View.EdicaoProdutos" style="swimlane;fontStyle=1;align=center;verticalAlign=top;childLayout=stackLayout;horizontal=1;startSize=26;horizontalStack=0;resizeParent=1;resizeParentMax=0;resizeLast=0;collapsible=1;marginBottom=0;whiteSpace=wrap;html=1;" vertex="1" parent="1">
          <mxGeometry x="680" y="1136" width="160" height="86" as="geometry" />
        </mxCell>
        <mxCell id="heMwimYEF9W9IpmWdrQg-115" value="+ field: type" style="text;strokeColor=none;fillColor=none;align=left;verticalAlign=top;spacingLeft=4;spacingRight=4;overflow=hidden;rotatable=0;points=[[0,0.5],[1,0.5]];portConstraint=eastwest;whiteSpace=wrap;html=1;" vertex="1" parent="heMwimYEF9W9IpmWdrQg-114">
          <mxGeometry y="26" width="160" height="26" as="geometry" />
        </mxCell>
        <mxCell id="heMwimYEF9W9IpmWdrQg-116" value="" style="line;strokeWidth=1;fillColor=none;align=left;verticalAlign=middle;spacingTop=-1;spacingLeft=3;spacingRight=3;rotatable=0;labelPosition=right;points=[];portConstraint=eastwest;strokeColor=inherit;" vertex="1" parent="heMwimYEF9W9IpmWdrQg-114">
          <mxGeometry y="52" width="160" height="8" as="geometry" />
        </mxCell>
        <mxCell id="heMwimYEF9W9IpmWdrQg-117" value="+ method(type): type" style="text;strokeColor=none;fillColor=none;align=left;verticalAlign=top;spacingLeft=4;spacingRight=4;overflow=hidden;rotatable=0;points=[[0,0.5],[1,0.5]];portConstraint=eastwest;whiteSpace=wrap;html=1;" vertex="1" parent="heMwimYEF9W9IpmWdrQg-114">
          <mxGeometry y="60" width="160" height="26" as="geometry" />
        </mxCell>
        <mxCell id="heMwimYEF9W9IpmWdrQg-118" value="View.Cadastro" style="swimlane;fontStyle=1;align=center;verticalAlign=top;childLayout=stackLayout;horizontal=1;startSize=26;horizontalStack=0;resizeParent=1;resizeParentMax=0;resizeLast=0;collapsible=1;marginBottom=0;whiteSpace=wrap;html=1;" vertex="1" parent="1">
          <mxGeometry x="30" y="1270" width="160" height="86" as="geometry" />
        </mxCell>
        <mxCell id="heMwimYEF9W9IpmWdrQg-119" value="+ field: type" style="text;strokeColor=none;fillColor=none;align=left;verticalAlign=top;spacingLeft=4;spacingRight=4;overflow=hidden;rotatable=0;points=[[0,0.5],[1,0.5]];portConstraint=eastwest;whiteSpace=wrap;html=1;" vertex="1" parent="heMwimYEF9W9IpmWdrQg-118">
          <mxGeometry y="26" width="160" height="26" as="geometry" />
        </mxCell>
        <mxCell id="heMwimYEF9W9IpmWdrQg-120" value="" style="line;strokeWidth=1;fillColor=none;align=left;verticalAlign=middle;spacingTop=-1;spacingLeft=3;spacingRight=3;rotatable=0;labelPosition=right;points=[];portConstraint=eastwest;strokeColor=inherit;" vertex="1" parent="heMwimYEF9W9IpmWdrQg-118">
          <mxGeometry y="52" width="160" height="8" as="geometry" />
        </mxCell>
        <mxCell id="heMwimYEF9W9IpmWdrQg-121" value="+ method(type): type" style="text;strokeColor=none;fillColor=none;align=left;verticalAlign=top;spacingLeft=4;spacingRight=4;overflow=hidden;rotatable=0;points=[[0,0.5],[1,0.5]];portConstraint=eastwest;whiteSpace=wrap;html=1;" vertex="1" parent="heMwimYEF9W9IpmWdrQg-118">
          <mxGeometry y="60" width="160" height="26" as="geometry" />
        </mxCell>
        <mxCell id="heMwimYEF9W9IpmWdrQg-122" value="View.EdicaoDados" style="swimlane;fontStyle=1;align=center;verticalAlign=top;childLayout=stackLayout;horizontal=1;startSize=26;horizontalStack=0;resizeParent=1;resizeParentMax=0;resizeLast=0;collapsible=1;marginBottom=0;whiteSpace=wrap;html=1;" vertex="1" parent="1">
          <mxGeometry x="470" y="1280" width="160" height="86" as="geometry" />
        </mxCell>
        <mxCell id="heMwimYEF9W9IpmWdrQg-123" value="+ field: type" style="text;strokeColor=none;fillColor=none;align=left;verticalAlign=top;spacingLeft=4;spacingRight=4;overflow=hidden;rotatable=0;points=[[0,0.5],[1,0.5]];portConstraint=eastwest;whiteSpace=wrap;html=1;" vertex="1" parent="heMwimYEF9W9IpmWdrQg-122">
          <mxGeometry y="26" width="160" height="26" as="geometry" />
        </mxCell>
        <mxCell id="heMwimYEF9W9IpmWdrQg-124" value="" style="line;strokeWidth=1;fillColor=none;align=left;verticalAlign=middle;spacingTop=-1;spacingLeft=3;spacingRight=3;rotatable=0;labelPosition=right;points=[];portConstraint=eastwest;strokeColor=inherit;" vertex="1" parent="heMwimYEF9W9IpmWdrQg-122">
          <mxGeometry y="52" width="160" height="8" as="geometry" />
        </mxCell>
        <mxCell id="heMwimYEF9W9IpmWdrQg-125" value="+ method(type): type" style="text;strokeColor=none;fillColor=none;align=left;verticalAlign=top;spacingLeft=4;spacingRight=4;overflow=hidden;rotatable=0;points=[[0,0.5],[1,0.5]];portConstraint=eastwest;whiteSpace=wrap;html=1;" vertex="1" parent="heMwimYEF9W9IpmWdrQg-122">
          <mxGeometry y="60" width="160" height="26" as="geometry" />
        </mxCell>
        <mxCell id="heMwimYEF9W9IpmWdrQg-126" value="View.FechamentoCompra" style="swimlane;fontStyle=1;align=center;verticalAlign=top;childLayout=stackLayout;horizontal=1;startSize=26;horizontalStack=0;resizeParent=1;resizeParentMax=0;resizeLast=0;collapsible=1;marginBottom=0;whiteSpace=wrap;html=1;" vertex="1" parent="1">
          <mxGeometry x="660" y="1260" width="160" height="86" as="geometry" />
        </mxCell>
        <mxCell id="heMwimYEF9W9IpmWdrQg-127" value="+ field: type" style="text;strokeColor=none;fillColor=none;align=left;verticalAlign=top;spacingLeft=4;spacingRight=4;overflow=hidden;rotatable=0;points=[[0,0.5],[1,0.5]];portConstraint=eastwest;whiteSpace=wrap;html=1;" vertex="1" parent="heMwimYEF9W9IpmWdrQg-126">
          <mxGeometry y="26" width="160" height="26" as="geometry" />
        </mxCell>
        <mxCell id="heMwimYEF9W9IpmWdrQg-128" value="" style="line;strokeWidth=1;fillColor=none;align=left;verticalAlign=middle;spacingTop=-1;spacingLeft=3;spacingRight=3;rotatable=0;labelPosition=right;points=[];portConstraint=eastwest;strokeColor=inherit;" vertex="1" parent="heMwimYEF9W9IpmWdrQg-126">
          <mxGeometry y="52" width="160" height="8" as="geometry" />
        </mxCell>
        <mxCell id="heMwimYEF9W9IpmWdrQg-129" value="+ method(type): type" style="text;strokeColor=none;fillColor=none;align=left;verticalAlign=top;spacingLeft=4;spacingRight=4;overflow=hidden;rotatable=0;points=[[0,0.5],[1,0.5]];portConstraint=eastwest;whiteSpace=wrap;html=1;" vertex="1" parent="heMwimYEF9W9IpmWdrQg-126">
          <mxGeometry y="60" width="160" height="26" as="geometry" />
        </mxCell>
        <mxCell id="heMwimYEF9W9IpmWdrQg-134" value="View.ListaPedidos" style="swimlane;fontStyle=1;align=center;verticalAlign=top;childLayout=stackLayout;horizontal=1;startSize=26;horizontalStack=0;resizeParent=1;resizeParentMax=0;resizeLast=0;collapsible=1;marginBottom=0;whiteSpace=wrap;html=1;" vertex="1" parent="1">
          <mxGeometry x="270" y="1290" width="160" height="86" as="geometry" />
        </mxCell>
        <mxCell id="heMwimYEF9W9IpmWdrQg-135" value="+ field: type" style="text;strokeColor=none;fillColor=none;align=left;verticalAlign=top;spacingLeft=4;spacingRight=4;overflow=hidden;rotatable=0;points=[[0,0.5],[1,0.5]];portConstraint=eastwest;whiteSpace=wrap;html=1;" vertex="1" parent="heMwimYEF9W9IpmWdrQg-134">
          <mxGeometry y="26" width="160" height="26" as="geometry" />
        </mxCell>
        <mxCell id="heMwimYEF9W9IpmWdrQg-136" value="" style="line;strokeWidth=1;fillColor=none;align=left;verticalAlign=middle;spacingTop=-1;spacingLeft=3;spacingRight=3;rotatable=0;labelPosition=right;points=[];portConstraint=eastwest;strokeColor=inherit;" vertex="1" parent="heMwimYEF9W9IpmWdrQg-134">
          <mxGeometry y="52" width="160" height="8" as="geometry" />
        </mxCell>
        <mxCell id="heMwimYEF9W9IpmWdrQg-137" value="+ method(type): type" style="text;strokeColor=none;fillColor=none;align=left;verticalAlign=top;spacingLeft=4;spacingRight=4;overflow=hidden;rotatable=0;points=[[0,0.5],[1,0.5]];portConstraint=eastwest;whiteSpace=wrap;html=1;" vertex="1" parent="heMwimYEF9W9IpmWdrQg-134">
          <mxGeometry y="60" width="160" height="26" as="geometry" />
        </mxCell>
        <mxCell id="heMwimYEF9W9IpmWdrQg-138" value="Â«interfaceÂ»&lt;br&gt;&lt;b&gt;Tela&lt;/b&gt;" style="html=1;whiteSpace=wrap;" vertex="1" parent="1">
          <mxGeometry x="390" y="1150" width="110" height="50" as="geometry" />
        </mxCell>
        <mxCell id="heMwimYEF9W9IpmWdrQg-139" value="" style="endArrow=block;dashed=1;endFill=0;endSize=12;html=1;rounded=0;" edge="1" parent="1" source="heMwimYEF9W9IpmWdrQg-88" target="heMwimYEF9W9IpmWdrQg-138">
          <mxGeometry width="160" relative="1" as="geometry">
            <mxPoint x="330" y="1230" as="sourcePoint" />
            <mxPoint x="490" y="1230" as="targetPoint" />
          </mxGeometry>
        </mxCell>
        <mxCell id="heMwimYEF9W9IpmWdrQg-140" value="" style="endArrow=block;dashed=1;endFill=0;endSize=12;html=1;rounded=0;" edge="1" parent="1" source="heMwimYEF9W9IpmWdrQg-92" target="heMwimYEF9W9IpmWdrQg-138">
          <mxGeometry width="160" relative="1" as="geometry">
            <mxPoint x="330" y="1230" as="sourcePoint" />
            <mxPoint x="490" y="1230" as="targetPoint" />
          </mxGeometry>
        </mxCell>
        <mxCell id="heMwimYEF9W9IpmWdrQg-141" value="" style="endArrow=block;dashed=1;endFill=0;endSize=12;html=1;rounded=0;" edge="1" parent="1" source="heMwimYEF9W9IpmWdrQg-96" target="heMwimYEF9W9IpmWdrQg-138">
          <mxGeometry width="160" relative="1" as="geometry">
            <mxPoint x="330" y="1230" as="sourcePoint" />
            <mxPoint x="490" y="1230" as="targetPoint" />
          </mxGeometry>
        </mxCell>
        <mxCell id="heMwimYEF9W9IpmWdrQg-142" value="" style="endArrow=block;dashed=1;endFill=0;endSize=12;html=1;rounded=0;" edge="1" parent="1" source="heMwimYEF9W9IpmWdrQg-100" target="heMwimYEF9W9IpmWdrQg-138">
          <mxGeometry width="160" relative="1" as="geometry">
            <mxPoint x="330" y="1230" as="sourcePoint" />
            <mxPoint x="490" y="1230" as="targetPoint" />
          </mxGeometry>
        </mxCell>
        <mxCell id="heMwimYEF9W9IpmWdrQg-143" value="" style="endArrow=block;dashed=1;endFill=0;endSize=12;html=1;rounded=0;entryX=0;entryY=0.5;entryDx=0;entryDy=0;" edge="1" parent="1" source="heMwimYEF9W9IpmWdrQg-104" target="heMwimYEF9W9IpmWdrQg-138">
          <mxGeometry width="160" relative="1" as="geometry">
            <mxPoint x="330" y="1230" as="sourcePoint" />
            <mxPoint x="490" y="1230" as="targetPoint" />
          </mxGeometry>
        </mxCell>
        <mxCell id="heMwimYEF9W9IpmWdrQg-144" value="" style="endArrow=block;dashed=1;endFill=0;endSize=12;html=1;rounded=0;" edge="1" parent="1" source="heMwimYEF9W9IpmWdrQg-118" target="heMwimYEF9W9IpmWdrQg-138">
          <mxGeometry width="160" relative="1" as="geometry">
            <mxPoint x="330" y="1230" as="sourcePoint" />
            <mxPoint x="490" y="1230" as="targetPoint" />
          </mxGeometry>
        </mxCell>
        <mxCell id="heMwimYEF9W9IpmWdrQg-145" value="" style="endArrow=block;dashed=1;endFill=0;endSize=12;html=1;rounded=0;" edge="1" parent="1" source="heMwimYEF9W9IpmWdrQg-122" target="heMwimYEF9W9IpmWdrQg-138">
          <mxGeometry width="160" relative="1" as="geometry">
            <mxPoint x="330" y="1230" as="sourcePoint" />
            <mxPoint x="490" y="1230" as="targetPoint" />
          </mxGeometry>
        </mxCell>
        <mxCell id="heMwimYEF9W9IpmWdrQg-146" value="" style="endArrow=block;dashed=1;endFill=0;endSize=12;html=1;rounded=0;" edge="1" parent="1" source="heMwimYEF9W9IpmWdrQg-126" target="heMwimYEF9W9IpmWdrQg-138">
          <mxGeometry width="160" relative="1" as="geometry">
            <mxPoint x="330" y="1230" as="sourcePoint" />
            <mxPoint x="490" y="1230" as="targetPoint" />
          </mxGeometry>
        </mxCell>
        <mxCell id="heMwimYEF9W9IpmWdrQg-147" value="" style="endArrow=block;dashed=1;endFill=0;endSize=12;html=1;rounded=0;" edge="1" parent="1" source="heMwimYEF9W9IpmWdrQg-134" target="heMwimYEF9W9IpmWdrQg-138">
          <mxGeometry width="160" relative="1" as="geometry">
            <mxPoint x="330" y="1230" as="sourcePoint" />
            <mxPoint x="490" y="1230" as="targetPoint" />
          </mxGeometry>
        </mxCell>
        <mxCell id="heMwimYEF9W9IpmWdrQg-148" value="" style="endArrow=block;dashed=1;endFill=0;endSize=12;html=1;rounded=0;" edge="1" parent="1" source="heMwimYEF9W9IpmWdrQg-114" target="heMwimYEF9W9IpmWdrQg-138">
          <mxGeometry width="160" relative="1" as="geometry">
            <mxPoint x="330" y="1230" as="sourcePoint" />
            <mxPoint x="490" y="1230" as="targetPoint" />
          </mxGeometry>
        </mxCell>
      </root>
    </mxGraphModel>
  </diagram>
</mxfile>
